<svg width="119" height="54" fill="none" xmlns="http://www.w3.org/2000/svg"><g clip-path="url(#a)"><rect width="54" height="54" rx="12" fill="#29A19C"/><g clip-path="url(#b)"><path d="M39.25 11.25h-7.315c-.735-2.03-2.66-3.5-4.935-3.5-2.275 0-4.2 1.47-4.935 3.5H14.75a3.51 3.51 0 0 0-3.5 3.5v24.5a3.51 3.51 0 0 0 3.5 3.5h24.5a3.51 3.51 0 0 0 3.5-3.5v-24.5a3.51 3.51 0 0 0-3.5-3.5Zm-12.25 0c.962 0 1.75.787 1.75 1.75s-.788 1.75-1.75 1.75-1.75-.787-1.75-1.75.788-1.75 1.75-1.75Zm3.5 24.5H18.25v-3.5H30.5v3.5Zm5.25-7h-17.5v-3.5h17.5v3.5Zm0-7h-17.5v-3.5h17.5v3.5Z" fill="#fff"/></g></g><path d="M68.248 22V11.38h-4.176V9.4h10.692v1.98h-4.176V22h-2.34Zm14.008 0v-1.944l-.126-.414V16.24c0-.66-.198-1.17-.594-1.53-.396-.372-.996-.558-1.8-.558-.54 0-1.074.084-1.602.252a3.925 3.925 0 0 0-1.314.702l-.882-1.638c.516-.396 1.128-.69 1.836-.882a8.148 8.148 0 0 1 2.232-.306c1.392 0 2.466.336 3.222 1.008.768.66 1.152 1.686 1.152 3.078V22h-2.124Zm-3.024.126c-.72 0-1.35-.12-1.89-.36-.54-.252-.96-.594-1.26-1.026a2.686 2.686 0 0 1-.432-1.494c0-.54.126-1.026.378-1.458.264-.432.69-.774 1.278-1.026.588-.252 1.368-.378 2.34-.378h2.79v1.494h-2.628c-.768 0-1.284.126-1.548.378-.264.24-.396.54-.396.9 0 .408.162.732.486.972.324.24.774.36 1.35.36.552 0 1.044-.126 1.476-.378.444-.252.762-.624.954-1.116l.378 1.35c-.216.564-.606 1.002-1.17 1.314-.552.312-1.254.468-2.106.468Zm11.546 0a8.742 8.742 0 0 1-2.322-.306c-.732-.216-1.314-.474-1.746-.774l.864-1.71c.432.276.948.504 1.548.684.6.18 1.2.27 1.8.27.708 0 1.218-.096 1.53-.288.324-.192.486-.45.486-.774a.65.65 0 0 0-.324-.594c-.216-.144-.498-.252-.846-.324a18.116 18.116 0 0 0-1.17-.198c-.42-.06-.846-.138-1.278-.234a4.9 4.9 0 0 1-1.152-.45 2.485 2.485 0 0 1-.846-.81c-.216-.336-.324-.78-.324-1.332 0-.612.174-1.14.522-1.584.348-.456.834-.804 1.458-1.044.636-.252 1.386-.378 2.25-.378.648 0 1.302.072 1.962.216.66.144 1.206.348 1.638.612l-.864 1.71a4.369 4.369 0 0 0-1.386-.558 5.918 5.918 0 0 0-1.368-.162c-.684 0-1.194.102-1.53.306-.324.204-.486.462-.486.774 0 .288.108.504.324.648.216.144.498.258.846.342.348.084.732.156 1.152.216.432.048.858.126 1.278.234a4.9 4.9 0 0 1 1.152.45c.36.18.648.438.864.774.216.336.324.774.324 1.314 0 .6-.18 1.122-.54 1.566-.348.444-.846.792-1.494 1.044-.648.24-1.422.36-2.322.36Zm8.67-2.268.054-2.826 5.022-4.644h2.7l-4.266 4.284-1.188.99-2.322 2.196ZM97.612 22V8.644h2.25V22h-2.25Zm7.254 0-3.51-4.338 1.422-1.8L107.602 22h-2.736Zm7.4.126a8.742 8.742 0 0 1-2.322-.306c-.732-.216-1.314-.474-1.746-.774l.864-1.71c.432.276.948.504 1.548.684.6.18 1.2.27 1.8.27.708 0 1.218-.096 1.53-.288.324-.192.486-.45.486-.774a.65.65 0 0 0-.324-.594c-.216-.144-.498-.252-.846-.324a18.116 18.116 0 0 0-1.17-.198c-.42-.06-.846-.138-1.278-.234a4.9 4.9 0 0 1-1.152-.45 2.485 2.485 0 0 1-.846-.81c-.216-.336-.324-.78-.324-1.332 0-.612.174-1.14.522-1.584.348-.456.834-.804 1.458-1.044.636-.252 1.386-.378 2.25-.378.648 0 1.302.072 1.962.216.66.144 1.206.348 1.638.612l-.864 1.71a4.369 4.369 0 0 0-1.386-.558 5.918 5.918 0 0 0-1.368-.162c-.684 0-1.194.102-1.53.306-.324.204-.486.462-.486.774 0 .288.108.504.324.648.216.144.498.258.846.342.348.084.732.156 1.152.216.432.048.858.126 1.278.234a4.9 4.9 0 0 1 1.152.45c.36.18.648.438.864.774.216.336.324.774.324 1.314 0 .6-.18 1.122-.54 1.566-.348.444-.846.792-1.494 1.044-.648.24-1.422.36-2.322.36ZM65.692 44V31.4h5.904c1.512 0 2.664.3 3.456.9.792.588 1.188 1.38 1.188 2.376 0 .672-.156 1.248-.468 1.728a3.204 3.204 0 0 1-1.26 1.098 3.803 3.803 0 0 1-1.692.378l.324-.648c.708 0 1.344.132 1.908.396a3.04 3.04 0 0 1 1.332 1.116c.336.492.504 1.104.504 1.836 0 1.08-.414 1.92-1.242 2.52-.828.6-2.058.9-3.69.9h-6.264Zm2.34-1.836h3.78c.876 0 1.548-.144 2.016-.432.468-.288.702-.75.702-1.386 0-.624-.234-1.08-.702-1.368-.468-.3-1.14-.45-2.016-.45h-3.96V36.71h3.492c.816 0 1.44-.144 1.872-.432.444-.288.666-.72.666-1.296 0-.588-.222-1.026-.666-1.314-.432-.288-1.056-.432-1.872-.432h-3.312v8.928Zm15.997 1.962c-.984 0-1.86-.21-2.628-.63a4.842 4.842 0 0 1-1.818-1.764c-.444-.744-.666-1.59-.666-2.538 0-.96.222-1.806.666-2.538a4.709 4.709 0 0 1 1.818-1.746c.768-.42 1.644-.63 2.628-.63.996 0 1.878.21 2.646.63.78.42 1.386.996 1.818 1.728.444.732.666 1.584.666 2.556 0 .948-.222 1.794-.666 2.538a4.675 4.675 0 0 1-1.818 1.764c-.768.42-1.65.63-2.646.63Zm0-1.926c.552 0 1.044-.12 1.476-.36a2.49 2.49 0 0 0 1.008-1.044c.252-.456.378-.99.378-1.602 0-.624-.126-1.158-.378-1.602a2.49 2.49 0 0 0-1.008-1.044 2.95 2.95 0 0 0-1.458-.36c-.552 0-1.044.12-1.476.36-.42.24-.756.588-1.008 1.044-.252.444-.378.978-.378 1.602 0 .612.126 1.146.378 1.602.252.456.588.804 1.008 1.044.432.24.918.36 1.458.36Zm12.142 1.926c-.984 0-1.86-.21-2.628-.63a4.842 4.842 0 0 1-1.818-1.764c-.444-.744-.666-1.59-.666-2.538 0-.96.222-1.806.666-2.538a4.709 4.709 0 0 1 1.818-1.746c.768-.42 1.644-.63 2.628-.63.996 0 1.878.21 2.646.63.78.42 1.386.996 1.818 1.728.444.732.666 1.584.666 2.556 0 .948-.222 1.794-.666 2.538a4.675 4.675 0 0 1-1.818 1.764c-.768.42-1.65.63-2.646.63Zm0-1.926c.552 0 1.044-.12 1.476-.36a2.49 2.49 0 0 0 1.008-1.044c.252-.456.378-.99.378-1.602 0-.624-.126-1.158-.378-1.602a2.49 2.49 0 0 0-1.008-1.044 2.95 2.95 0 0 0-1.458-.36c-.552 0-1.044.12-1.476.36-.42.24-.756.588-1.008 1.044-.252.444-.378.978-.378 1.602 0 .612.126 1.146.378 1.602.252.456.588.804 1.008 1.044.432.24.918.36 1.458.36Zm9.657-.342.054-2.826 5.022-4.644h2.7l-4.266 4.284-1.188.99-2.322 2.196ZM103.992 44V30.644h2.25V44h-2.25Zm7.254 0-3.51-4.338 1.422-1.8L113.982 44h-2.736Z" fill="#29A19C"/><defs><clipPath id="a"><path fill="#fff" d="M0 0h54v54H0z"/></clipPath><clipPath id="b"><path fill="#fff" transform="translate(6 6)" d="M0 0h42v42H0z"/></clipPath></defs></svg>