<svg width="18" height="18" fill="none" xmlns="http://www.w3.org/2000/svg" fill="#F9F9F9"><g clip-path="url(#a)" fill-rule="evenodd" clip-rule="evenodd"><path d="M1.542 3.042A2.063 2.063 0 0 1 3 2.438h5.25a.563.563 0 0 1 0 1.124H3a.937.937 0 0 0-.938.938V15a.937.937 0 0 0 .938.938h10.5a.938.938 0 0 0 .938-.938V9.75a.562.562 0 1 1 1.124 0V15a2.062 2.062 0 0 1-2.062 2.063H3A2.062 2.062 0 0 1 .937 15V4.5c0-.547.218-1.072.605-1.458Z"/><path d="M15 1.971c-.273 0-.534.109-.727.302L7.258 9.287l-.485 1.94 1.94-.485 7.014-7.015A1.028 1.028 0 0 0 15 1.971Zm-1.523-.494a2.154 2.154 0 0 1 3.046 3.046l-7.125 7.125a.562.562 0 0 1-.262.148l-3 .75a.562.562 0 0 1-.682-.682l.75-3a.563.563 0 0 1 .148-.262l7.125-7.125Z"/></g><defs><clipPath id="a"><path d="M0 0h18v18H0z"/></clipPath></defs></svg>