<svg width="18" height="18" fill="none" xmlns="http://www.w3.org/2000/svg"><path fill-rule="evenodd" clip-rule="evenodd" d="M1.688 4.5c0-.31.251-.563.562-.563h13.5a.562.562 0 1 1 0 1.126H2.25a.563.563 0 0 1-.563-.563Z" fill="#F05454"/><path fill-rule="evenodd" clip-rule="evenodd" d="M7.5 2.063A.937.937 0 0 0 6.562 3v.938h4.875V3a.938.938 0 0 0-.937-.938h-3Zm5.063 1.874V3A2.062 2.062 0 0 0 10.5.937h-3A2.063 2.063 0 0 0 5.437 3v.938H3.75a.563.563 0 0 0-.563.562V15a2.063 2.063 0 0 0 2.063 2.063h7.5A2.062 2.062 0 0 0 14.813 15V4.5a.562.562 0 0 0-.563-.563h-1.688Zm-8.25 1.126V15a.937.937 0 0 0 .937.938h7.5a.938.938 0 0 0 .938-.938V5.062H4.312Z" fill="#F05454"/></svg>